<svg xmlns="http://www.w3.org/2000/svg" xmlns:xlink="http://www.w3.org/1999/xlink" width="150" zoomAndPan="magnify" viewBox="0 0 375 374.999991" height="150" preserveAspectRatio="xMidYMid meet" version="1.0"><defs><g/><clipPath id="111b57eb2d"><path d="M 329.503906 206.25 L 333.257812 206.25 L 333.257812 209.507812 L 329.503906 209.507812 Z M 329.503906 206.25 " clip-rule="nonzero"/></clipPath><clipPath id="c56500f289"><path d="M 331.378906 206.25 C 330.34375 206.25 329.503906 206.980469 329.503906 207.878906 C 329.503906 208.777344 330.34375 209.507812 331.378906 209.507812 C 332.414062 209.507812 333.253906 208.777344 333.253906 207.878906 C 333.253906 206.980469 332.414062 206.25 331.378906 206.25 Z M 331.378906 206.25 " clip-rule="nonzero"/></clipPath><clipPath id="6ea2b51617"><path d="M 119.292969 206.25 L 123.046875 206.25 L 123.046875 209.507812 L 119.292969 209.507812 Z M 119.292969 206.25 " clip-rule="nonzero"/></clipPath><clipPath id="34cc849ace"><path d="M 121.167969 206.25 C 120.132812 206.25 119.292969 206.980469 119.292969 207.878906 C 119.292969 208.777344 120.132812 209.507812 121.167969 209.507812 C 122.203125 209.507812 123.042969 208.777344 123.042969 207.878906 C 123.042969 206.980469 122.203125 206.25 121.167969 206.25 Z M 121.167969 206.25 " clip-rule="nonzero"/></clipPath></defs><g clip-path="url(#111b57eb2d)"><g clip-path="url(#c56500f289)"><path fill="#ffffff" d="M 329.503906 206.25 L 333.257812 206.25 L 333.257812 209.507812 L 329.503906 209.507812 Z M 329.503906 206.25 " fill-opacity="1" fill-rule="nonzero"/></g></g><g fill="#fffbf5" fill-opacity="1"><g transform="translate(125.314779, 190.26485)"><g><path d="M 13.65625 -1.765625 L 14.046875 -0.390625 C 13.578125 -0.0351562 12.953125 0.140625 12.171875 0.140625 C 11.503906 0.140625 10.898438 -0.0078125 10.359375 -0.3125 C 9.828125 -0.625 9.3125 -1.148438 8.8125 -1.890625 L 5.75 -6.390625 C 5.550781 -6.679688 5.3125 -6.921875 5.03125 -7.109375 C 4.757812 -7.304688 4.476562 -7.40625 4.1875 -7.40625 L 3.640625 -7.40625 L 3.640625 0 L 1.890625 0 L 1.890625 -16.328125 L 6.484375 -16.328125 C 8.304688 -16.328125 9.703125 -15.929688 10.671875 -15.140625 C 11.648438 -14.359375 12.140625 -13.28125 12.140625 -11.90625 C 12.140625 -10.925781 11.894531 -10.109375 11.40625 -9.453125 C 10.925781 -8.796875 10.28125 -8.296875 9.46875 -7.953125 C 8.65625 -7.617188 7.757812 -7.453125 6.78125 -7.453125 L 6.640625 -7.453125 C 7.078125 -7.234375 7.515625 -6.796875 7.953125 -6.140625 L 10.09375 -3.015625 C 10.382812 -2.566406 10.640625 -2.226562 10.859375 -2 C 11.085938 -1.769531 11.316406 -1.613281 11.546875 -1.53125 C 11.785156 -1.445312 12.082031 -1.40625 12.4375 -1.40625 C 12.664062 -1.40625 12.878906 -1.4375 13.078125 -1.5 C 13.285156 -1.570312 13.476562 -1.660156 13.65625 -1.765625 Z M 6.34375 -14.859375 L 3.640625 -14.859375 L 3.640625 -8.828125 L 6.140625 -8.828125 C 7.492188 -8.828125 8.535156 -9.066406 9.265625 -9.546875 C 10.003906 -10.035156 10.375 -10.8125 10.375 -11.875 C 10.375 -12.800781 10.050781 -13.53125 9.40625 -14.0625 C 8.757812 -14.59375 7.738281 -14.859375 6.34375 -14.859375 Z M 6.34375 -14.859375 "/></g></g></g><g fill="#fffbf5" fill-opacity="1"><g transform="translate(140.076276, 190.26485)"><g><path d="M 6.71875 -11.640625 C 8.289062 -11.640625 9.535156 -11.128906 10.453125 -10.109375 C 11.367188 -9.085938 11.828125 -7.703125 11.828125 -5.953125 C 11.828125 -4.785156 11.597656 -3.738281 11.140625 -2.8125 C 10.691406 -1.882812 10.0625 -1.148438 9.25 -0.609375 C 8.4375 -0.078125 7.484375 0.1875 6.390625 0.1875 C 4.785156 0.1875 3.519531 -0.320312 2.59375 -1.34375 C 1.675781 -2.363281 1.21875 -3.753906 1.21875 -5.515625 C 1.21875 -6.679688 1.441406 -7.722656 1.890625 -8.640625 C 2.347656 -9.566406 2.988281 -10.296875 3.8125 -10.828125 C 4.644531 -11.367188 5.613281 -11.640625 6.71875 -11.640625 Z M 6.390625 -1.359375 C 7.492188 -1.359375 8.382812 -1.78125 9.0625 -2.625 C 9.738281 -3.46875 10.078125 -4.578125 10.078125 -5.953125 C 10.078125 -7.285156 9.78125 -8.3125 9.1875 -9.03125 C 8.59375 -9.757812 7.773438 -10.125 6.734375 -10.125 C 5.972656 -10.125 5.3125 -9.925781 4.75 -9.53125 C 4.1875 -9.144531 3.75 -8.601562 3.4375 -7.90625 C 3.125 -7.21875 2.96875 -6.421875 2.96875 -5.515625 C 2.96875 -4.171875 3.269531 -3.140625 3.875 -2.421875 C 4.476562 -1.710938 5.316406 -1.359375 6.390625 -1.359375 Z M 6.390625 -1.359375 "/></g></g></g><g fill="#fffbf5" fill-opacity="1"><g transform="translate(154.492882, 190.26485)"><g><path d="M 5.796875 4.828125 C 5.148438 4.828125 4.484375 4.757812 3.796875 4.625 C 3.117188 4.5 2.535156 4.300781 2.046875 4.03125 L 2.5 2.5 C 3.007812 2.757812 3.554688 2.953125 4.140625 3.078125 C 4.722656 3.210938 5.289062 3.28125 5.84375 3.28125 C 7.3125 3.28125 8.351562 2.914062 8.96875 2.1875 C 9.59375 1.46875 9.921875 0.3125 9.953125 -1.28125 L 10 -2.96875 C 9.570312 -2.0625 8.988281 -1.34375 8.25 -0.8125 C 7.519531 -0.28125 6.679688 -0.015625 5.734375 -0.015625 C 4.273438 -0.015625 3.15625 -0.503906 2.375 -1.484375 C 1.601562 -2.472656 1.21875 -3.742188 1.21875 -5.296875 C 1.21875 -6.535156 1.453125 -7.628906 1.921875 -8.578125 C 2.390625 -9.523438 3.039062 -10.269531 3.875 -10.8125 C 4.707031 -11.363281 5.671875 -11.640625 6.765625 -11.640625 C 7.546875 -11.640625 8.226562 -11.460938 8.8125 -11.109375 C 9.40625 -10.753906 9.84375 -10.300781 10.125 -9.75 L 10.34375 -11.4375 L 11.609375 -11.4375 L 11.609375 -1.546875 C 11.609375 2.703125 9.671875 4.828125 5.796875 4.828125 Z M 6.8125 -10.125 C 6.039062 -10.125 5.367188 -9.921875 4.796875 -9.515625 C 4.222656 -9.117188 3.773438 -8.566406 3.453125 -7.859375 C 3.128906 -7.160156 2.96875 -6.347656 2.96875 -5.421875 C 2.96875 -4.203125 3.234375 -3.253906 3.765625 -2.578125 C 4.304688 -1.898438 5.046875 -1.5625 5.984375 -1.5625 C 6.734375 -1.5625 7.410156 -1.78125 8.015625 -2.21875 C 8.617188 -2.664062 9.09375 -3.273438 9.4375 -4.046875 C 9.78125 -4.816406 9.953125 -5.679688 9.953125 -6.640625 C 9.953125 -7.734375 9.671875 -8.585938 9.109375 -9.203125 C 8.554688 -9.816406 7.789062 -10.125 6.8125 -10.125 Z M 6.8125 -10.125 "/></g></g></g><g fill="#fffbf5" fill-opacity="1"><g transform="translate(169.208383, 190.26485)"><g><path d="M 6.875 0.1875 C 5.113281 0.1875 3.726562 -0.316406 2.71875 -1.328125 C 1.71875 -2.347656 1.21875 -3.757812 1.21875 -5.5625 C 1.21875 -6.75 1.453125 -7.800781 1.921875 -8.71875 C 2.398438 -9.632812 3.050781 -10.347656 3.875 -10.859375 C 4.695312 -11.378906 5.628906 -11.640625 6.671875 -11.640625 C 8.234375 -11.640625 9.4375 -11.09375 10.28125 -10 C 11.132812 -8.914062 11.441406 -7.289062 11.203125 -5.125 L 2.9375 -5.125 C 2.988281 -3.894531 3.363281 -2.957031 4.0625 -2.3125 C 4.757812 -1.675781 5.734375 -1.359375 6.984375 -1.359375 C 7.597656 -1.359375 8.1875 -1.488281 8.75 -1.75 C 9.320312 -2.019531 9.8125 -2.441406 10.21875 -3.015625 L 11.265625 -2.046875 C 10.242188 -0.554688 8.78125 0.1875 6.875 0.1875 Z M 6.6875 -10.28125 C 5.988281 -10.28125 5.375 -10.109375 4.84375 -9.765625 C 4.3125 -9.429688 3.882812 -8.976562 3.5625 -8.40625 C 3.238281 -7.832031 3.039062 -7.191406 2.96875 -6.484375 L 9.734375 -6.484375 C 9.796875 -7.816406 9.535156 -8.78125 8.953125 -9.375 C 8.367188 -9.976562 7.613281 -10.28125 6.6875 -10.28125 Z M 5.765625 -13.171875 L 8.390625 -17.25 L 10.1875 -16.75 L 7.3125 -13.171875 Z M 5.765625 -13.171875 "/></g></g></g><g fill="#fffbf5" fill-opacity="1"><g transform="translate(182.889239, 190.26485)"><g><path d="M 8.21875 -9.84375 C 8.0625 -9.882812 7.90625 -9.910156 7.75 -9.921875 C 7.59375 -9.941406 7.425781 -9.953125 7.25 -9.953125 C 5.914062 -9.953125 4.941406 -9.164062 4.328125 -7.59375 C 3.710938 -6.03125 3.40625 -3.5 3.40625 0 L 1.75 0 L 1.75 -7.34375 L 1.71875 -11.4375 L 3.40625 -11.4375 L 3.28125 -7.359375 C 3.65625 -8.910156 4.207031 -10.007812 4.9375 -10.65625 C 5.675781 -11.3125 6.46875 -11.640625 7.3125 -11.640625 C 7.5625 -11.640625 7.78125 -11.625 7.96875 -11.59375 C 8.15625 -11.570312 8.320312 -11.535156 8.46875 -11.484375 Z M 8.21875 -9.84375 "/></g></g></g><g fill="#fffbf5" fill-opacity="1"><g transform="translate(192.914326, 190.26485)"><g><path d="M 3.375 -11.4375 L 3.375 0 L 1.71875 0 L 1.71875 -11.4375 Z M 2.59375 -14.03125 C 2.226562 -14.03125 1.945312 -14.144531 1.75 -14.375 C 1.550781 -14.601562 1.453125 -14.875 1.453125 -15.1875 C 1.453125 -15.488281 1.550781 -15.753906 1.75 -15.984375 C 1.957031 -16.210938 2.238281 -16.328125 2.59375 -16.328125 C 2.945312 -16.328125 3.226562 -16.210938 3.4375 -15.984375 C 3.644531 -15.753906 3.75 -15.488281 3.75 -15.1875 C 3.75 -14.875 3.644531 -14.601562 3.4375 -14.375 C 3.226562 -14.144531 2.945312 -14.03125 2.59375 -14.03125 Z M 2.59375 -14.03125 "/></g></g></g><g fill="#fffbf5" fill-opacity="1"><g transform="translate(199.398611, 190.26485)"><g><path d="M 6.71875 -11.640625 C 8.289062 -11.640625 9.535156 -11.128906 10.453125 -10.109375 C 11.367188 -9.085938 11.828125 -7.703125 11.828125 -5.953125 C 11.828125 -4.785156 11.597656 -3.738281 11.140625 -2.8125 C 10.691406 -1.882812 10.0625 -1.148438 9.25 -0.609375 C 8.4375 -0.078125 7.484375 0.1875 6.390625 0.1875 C 4.785156 0.1875 3.519531 -0.320312 2.59375 -1.34375 C 1.675781 -2.363281 1.21875 -3.753906 1.21875 -5.515625 C 1.21875 -6.679688 1.441406 -7.722656 1.890625 -8.640625 C 2.347656 -9.566406 2.988281 -10.296875 3.8125 -10.828125 C 4.644531 -11.367188 5.613281 -11.640625 6.71875 -11.640625 Z M 6.390625 -1.359375 C 7.492188 -1.359375 8.382812 -1.78125 9.0625 -2.625 C 9.738281 -3.46875 10.078125 -4.578125 10.078125 -5.953125 C 10.078125 -7.285156 9.78125 -8.3125 9.1875 -9.03125 C 8.59375 -9.757812 7.773438 -10.125 6.734375 -10.125 C 5.972656 -10.125 5.3125 -9.925781 4.75 -9.53125 C 4.1875 -9.144531 3.75 -8.601562 3.4375 -7.90625 C 3.125 -7.21875 2.96875 -6.421875 2.96875 -5.515625 C 2.96875 -4.171875 3.269531 -3.140625 3.875 -2.421875 C 4.476562 -1.710938 5.316406 -1.359375 6.390625 -1.359375 Z M 6.390625 -1.359375 "/></g></g></g><g fill="#fffbf5" fill-opacity="1"><g transform="translate(213.815218, 190.26485)"><g/></g></g><g fill="#fffbf5" fill-opacity="1"><g transform="translate(220.43745, 190.26485)"><g><path d="M 4.046875 0.1875 C 2.898438 0.1875 1.925781 -0.09375 1.125 -0.65625 C 0.332031 -1.226562 -0.171875 -1.988281 -0.390625 -2.9375 L 1.0625 -3.59375 C 1.300781 -2.820312 1.671875 -2.265625 2.171875 -1.921875 C 2.671875 -1.578125 3.316406 -1.40625 4.109375 -1.40625 C 4.984375 -1.40625 5.628906 -1.664062 6.046875 -2.1875 C 6.460938 -2.71875 6.671875 -3.5625 6.671875 -4.71875 L 6.671875 -16.328125 L 8.46875 -16.328125 L 8.46875 -4.78125 C 8.46875 -3.15625 8.101562 -1.921875 7.375 -1.078125 C 6.644531 -0.234375 5.535156 0.1875 4.046875 0.1875 Z M 4.046875 0.1875 "/></g></g></g><g fill="#fffbf5" fill-opacity="1"><g transform="translate(232.117982, 190.26485)"><g><path d="M 6.71875 -11.640625 C 8.289062 -11.640625 9.535156 -11.128906 10.453125 -10.109375 C 11.367188 -9.085938 11.828125 -7.703125 11.828125 -5.953125 C 11.828125 -4.785156 11.597656 -3.738281 11.140625 -2.8125 C 10.691406 -1.882812 10.0625 -1.148438 9.25 -0.609375 C 8.4375 -0.078125 7.484375 0.1875 6.390625 0.1875 C 4.785156 0.1875 3.519531 -0.320312 2.59375 -1.34375 C 1.675781 -2.363281 1.21875 -3.753906 1.21875 -5.515625 C 1.21875 -6.679688 1.441406 -7.722656 1.890625 -8.640625 C 2.347656 -9.566406 2.988281 -10.296875 3.8125 -10.828125 C 4.644531 -11.367188 5.613281 -11.640625 6.71875 -11.640625 Z M 6.390625 -1.359375 C 7.492188 -1.359375 8.382812 -1.78125 9.0625 -2.625 C 9.738281 -3.46875 10.078125 -4.578125 10.078125 -5.953125 C 10.078125 -7.285156 9.78125 -8.3125 9.1875 -9.03125 C 8.59375 -9.757812 7.773438 -10.125 6.734375 -10.125 C 5.972656 -10.125 5.3125 -9.925781 4.75 -9.53125 C 4.1875 -9.144531 3.75 -8.601562 3.4375 -7.90625 C 3.125 -7.21875 2.96875 -6.421875 2.96875 -5.515625 C 2.96875 -4.171875 3.269531 -3.140625 3.875 -2.421875 C 4.476562 -1.710938 5.316406 -1.359375 6.390625 -1.359375 Z M 6.390625 -1.359375 "/></g></g></g><g fill="#fffbf5" fill-opacity="1"><g transform="translate(246.534584, 190.26485)"><g><path d="M 5.40625 0.1875 C 3.976562 0.1875 2.875 -0.109375 2.09375 -0.703125 C 1.3125 -1.296875 0.859375 -2.132812 0.734375 -3.21875 L 2.203125 -3.5625 C 2.316406 -2.75 2.628906 -2.148438 3.140625 -1.765625 C 3.648438 -1.390625 4.40625 -1.203125 5.40625 -1.203125 C 6.25 -1.203125 6.890625 -1.375 7.328125 -1.71875 C 7.765625 -2.0625 7.984375 -2.507812 7.984375 -3.0625 C 7.984375 -3.582031 7.757812 -3.96875 7.3125 -4.21875 C 6.863281 -4.46875 6.164062 -4.6875 5.21875 -4.875 C 4.425781 -5.03125 3.742188 -5.222656 3.171875 -5.453125 C 2.609375 -5.691406 2.171875 -6.023438 1.859375 -6.453125 C 1.554688 -6.890625 1.40625 -7.46875 1.40625 -8.1875 C 1.40625 -8.832031 1.582031 -9.414062 1.9375 -9.9375 C 2.289062 -10.457031 2.773438 -10.863281 3.390625 -11.15625 C 4.015625 -11.457031 4.71875 -11.609375 5.5 -11.609375 C 6.570312 -11.609375 7.445312 -11.351562 8.125 -10.84375 C 8.8125 -10.332031 9.234375 -9.625 9.390625 -8.71875 L 7.953125 -8.34375 C 7.722656 -9.601562 6.894531 -10.234375 5.46875 -10.234375 C 4.738281 -10.234375 4.15625 -10.050781 3.71875 -9.6875 C 3.28125 -9.332031 3.0625 -8.847656 3.0625 -8.234375 C 3.0625 -7.722656 3.25 -7.316406 3.625 -7.015625 C 4.007812 -6.722656 4.703125 -6.46875 5.703125 -6.25 C 6.515625 -6.082031 7.210938 -5.890625 7.796875 -5.671875 C 8.378906 -5.453125 8.828125 -5.148438 9.140625 -4.765625 C 9.453125 -4.378906 9.617188 -3.847656 9.640625 -3.171875 C 9.640625 -2.523438 9.460938 -1.945312 9.109375 -1.4375 C 8.753906 -0.9375 8.257812 -0.539062 7.625 -0.25 C 6.988281 0.0390625 6.25 0.1875 5.40625 0.1875 Z M 5.40625 0.1875 "/></g></g></g><g fill="#fffbf5" fill-opacity="1"><g transform="translate(258.307075, 190.26485)"><g><path d="M 6.875 0.1875 C 5.113281 0.1875 3.726562 -0.316406 2.71875 -1.328125 C 1.71875 -2.347656 1.21875 -3.757812 1.21875 -5.5625 C 1.21875 -6.75 1.453125 -7.800781 1.921875 -8.71875 C 2.398438 -9.632812 3.050781 -10.347656 3.875 -10.859375 C 4.695312 -11.378906 5.628906 -11.640625 6.671875 -11.640625 C 8.234375 -11.640625 9.4375 -11.09375 10.28125 -10 C 11.132812 -8.914062 11.441406 -7.289062 11.203125 -5.125 L 2.9375 -5.125 C 2.988281 -3.894531 3.363281 -2.957031 4.0625 -2.3125 C 4.757812 -1.675781 5.734375 -1.359375 6.984375 -1.359375 C 7.597656 -1.359375 8.1875 -1.488281 8.75 -1.75 C 9.320312 -2.019531 9.8125 -2.441406 10.21875 -3.015625 L 11.265625 -2.046875 C 10.242188 -0.554688 8.78125 0.1875 6.875 0.1875 Z M 6.6875 -10.28125 C 5.988281 -10.28125 5.375 -10.109375 4.84375 -9.765625 C 4.3125 -9.429688 3.882812 -8.976562 3.5625 -8.40625 C 3.238281 -7.832031 3.039062 -7.191406 2.96875 -6.484375 L 9.734375 -6.484375 C 9.796875 -7.816406 9.535156 -8.78125 8.953125 -9.375 C 8.367188 -9.976562 7.613281 -10.28125 6.6875 -10.28125 Z M 5.765625 -13.171875 L 8.390625 -17.25 L 10.1875 -16.75 L 7.3125 -13.171875 Z M 5.765625 -13.171875 "/></g></g></g><g fill="#fffbf5" fill-opacity="1"><g transform="translate(125.662877, 212.004653)"><g><path d="M 0.984375 0 L 0.984375 -8.515625 L 3.140625 -8.515625 C 6.441406 -8.515625 8.09375 -7.113281 8.09375 -4.3125 C 8.09375 -3.414062 7.90625 -2.644531 7.53125 -2 C 7.164062 -1.351562 6.640625 -0.859375 5.953125 -0.515625 C 5.265625 -0.171875 4.441406 0 3.484375 0 Z M 1.90625 -0.8125 L 3.4375 -0.8125 C 4.65625 -0.8125 5.578125 -1.101562 6.203125 -1.6875 C 6.835938 -2.269531 7.15625 -3.125 7.15625 -4.25 C 7.15625 -5.40625 6.835938 -6.269531 6.203125 -6.84375 C 5.566406 -7.414062 4.59375 -7.703125 3.28125 -7.703125 L 1.90625 -7.703125 Z M 1.90625 -0.8125 "/></g></g></g><g fill="#fffbf5" fill-opacity="1"><g transform="translate(136.042897, 212.004653)"><g><path d="M 5.921875 -7.734375 L 1.890625 -7.734375 L 1.890625 -4.734375 L 5.8125 -4.734375 L 5.8125 -3.9375 L 1.890625 -3.9375 L 1.890625 -0.796875 L 6.078125 -0.796875 L 6.015625 0 L 0.984375 0 L 0.984375 -8.515625 L 5.921875 -8.515625 Z M 5.921875 -7.734375 "/></g></g></g><g fill="#fffbf5" fill-opacity="1"><g transform="translate(144.130905, 212.004653)"><g><path d="M 3.484375 0.09375 C 1.585938 0.09375 0.546875 -0.773438 0.359375 -2.515625 L 1.21875 -2.640625 C 1.34375 -1.960938 1.585938 -1.472656 1.953125 -1.171875 C 2.316406 -0.867188 2.847656 -0.71875 3.546875 -0.71875 C 4.128906 -0.71875 4.585938 -0.851562 4.921875 -1.125 C 5.253906 -1.394531 5.421875 -1.765625 5.421875 -2.234375 C 5.421875 -2.535156 5.347656 -2.773438 5.203125 -2.953125 C 5.066406 -3.140625 4.859375 -3.289062 4.578125 -3.40625 C 4.296875 -3.53125 3.9375 -3.640625 3.5 -3.734375 C 2.976562 -3.847656 2.519531 -3.988281 2.125 -4.15625 C 1.726562 -4.332031 1.421875 -4.578125 1.203125 -4.890625 C 0.992188 -5.203125 0.890625 -5.632812 0.890625 -6.1875 C 0.890625 -6.65625 1.003906 -7.070312 1.234375 -7.4375 C 1.472656 -7.8125 1.796875 -8.101562 2.203125 -8.3125 C 2.617188 -8.53125 3.09375 -8.640625 3.625 -8.640625 C 4.363281 -8.640625 4.960938 -8.4375 5.421875 -8.03125 C 5.890625 -7.632812 6.171875 -7.082031 6.265625 -6.375 L 5.453125 -6.234375 C 5.347656 -6.785156 5.144531 -7.1875 4.84375 -7.4375 C 4.539062 -7.695312 4.125 -7.828125 3.59375 -7.828125 C 3.050781 -7.828125 2.617188 -7.679688 2.296875 -7.390625 C 1.972656 -7.097656 1.8125 -6.707031 1.8125 -6.21875 C 1.8125 -5.695312 1.976562 -5.316406 2.3125 -5.078125 C 2.644531 -4.847656 3.160156 -4.664062 3.859375 -4.53125 C 4.378906 -4.414062 4.828125 -4.273438 5.203125 -4.109375 C 5.578125 -3.941406 5.859375 -3.710938 6.046875 -3.421875 C 6.242188 -3.128906 6.34375 -2.738281 6.34375 -2.25 C 6.34375 -1.78125 6.21875 -1.367188 5.96875 -1.015625 C 5.726562 -0.660156 5.390625 -0.382812 4.953125 -0.1875 C 4.523438 0 4.035156 0.09375 3.484375 0.09375 Z M 3.484375 0.09375 "/></g></g></g><g fill="#fffbf5" fill-opacity="1"><g transform="translate(152.506915, 212.004653)"><g><path d="M 5.921875 -7.734375 L 1.890625 -7.734375 L 1.890625 -4.734375 L 5.8125 -4.734375 L 5.8125 -3.9375 L 1.890625 -3.9375 L 1.890625 -0.796875 L 6.078125 -0.796875 L 6.015625 0 L 0.984375 0 L 0.984375 -8.515625 L 5.921875 -8.515625 Z M 5.921875 -7.734375 "/></g></g></g><g fill="#fffbf5" fill-opacity="1"><g transform="translate(160.594924, 212.004653)"><g><path d="M 6.734375 -8.515625 L 7.625 -8.515625 L 7.625 0 L 6.828125 0 L 1.875 -6.953125 L 1.875 0 L 0.984375 0 L 0.984375 -8.515625 L 1.78125 -8.515625 L 6.734375 -1.5625 Z M 6.734375 -8.515625 "/></g></g></g><g fill="#fffbf5" fill-opacity="1"><g transform="translate(170.782946, 212.004653)"><g><path d="M 6.28125 -8.515625 L 7.203125 -8.515625 L 4.015625 0 L 2.765625 0 L 0.125 -8.515625 L 1.078125 -8.515625 L 3.4375 -0.75 Z M 6.28125 -8.515625 "/></g></g></g><g fill="#fffbf5" fill-opacity="1"><g transform="translate(179.398962, 212.004653)"><g><path d="M 4.5625 0.09375 C 3.769531 0.09375 3.082031 -0.0703125 2.5 -0.40625 C 1.914062 -0.738281 1.46875 -1.210938 1.15625 -1.828125 C 0.851562 -2.453125 0.703125 -3.210938 0.703125 -4.109375 C 0.703125 -4.992188 0.875 -5.773438 1.21875 -6.453125 C 1.5625 -7.140625 2.039062 -7.675781 2.65625 -8.0625 C 3.269531 -8.445312 3.976562 -8.640625 4.78125 -8.640625 C 5.53125 -8.640625 6.1875 -8.460938 6.75 -8.109375 C 7.3125 -7.753906 7.75 -7.265625 8.0625 -6.640625 C 8.375 -6.015625 8.53125 -5.273438 8.53125 -4.421875 C 8.53125 -3.503906 8.359375 -2.707031 8.015625 -2.03125 C 7.671875 -1.351562 7.203125 -0.828125 6.609375 -0.453125 C 6.015625 -0.0859375 5.332031 0.09375 4.5625 0.09375 Z M 4.5625 -0.75 C 5.15625 -0.75 5.675781 -0.894531 6.125 -1.1875 C 6.582031 -1.476562 6.9375 -1.898438 7.1875 -2.453125 C 7.445312 -3.003906 7.578125 -3.671875 7.578125 -4.453125 C 7.578125 -5.128906 7.460938 -5.71875 7.234375 -6.21875 C 7.015625 -6.71875 6.695312 -7.101562 6.28125 -7.375 C 5.863281 -7.644531 5.367188 -7.78125 4.796875 -7.78125 C 4.179688 -7.78125 3.632812 -7.625 3.15625 -7.3125 C 2.6875 -7.007812 2.316406 -6.582031 2.046875 -6.03125 C 1.773438 -5.476562 1.640625 -4.835938 1.640625 -4.109375 C 1.640625 -3.035156 1.898438 -2.207031 2.421875 -1.625 C 2.941406 -1.039062 3.65625 -0.75 4.5625 -0.75 Z M 4.5625 -0.75 "/></g></g></g><g fill="#fffbf5" fill-opacity="1"><g transform="translate(190.210984, 212.004653)"><g><path d="M 0.984375 0 L 0.984375 -8.515625 L 1.90625 -8.515625 L 1.90625 -0.796875 L 5.890625 -0.796875 L 5.8125 0 Z M 0.984375 0 "/></g></g></g><g fill="#fffbf5" fill-opacity="1"><g transform="translate(197.602997, 212.004653)"><g><path d="M 6.28125 -8.515625 L 7.203125 -8.515625 L 4.015625 0 L 2.765625 0 L 0.125 -8.515625 L 1.078125 -8.515625 L 3.4375 -0.75 Z M 6.28125 -8.515625 "/></g></g></g><g fill="#fffbf5" fill-opacity="1"><g transform="translate(206.219013, 212.004653)"><g><path d="M 5.921875 -7.734375 L 1.890625 -7.734375 L 1.890625 -4.734375 L 5.8125 -4.734375 L 5.8125 -3.9375 L 1.890625 -3.9375 L 1.890625 -0.796875 L 6.078125 -0.796875 L 6.015625 0 L 0.984375 0 L 0.984375 -8.515625 L 5.921875 -8.515625 Z M 5.921875 -7.734375 "/></g></g></g><g fill="#fffbf5" fill-opacity="1"><g transform="translate(214.307021, 212.004653)"><g><path d="M 0.984375 0 L 0.984375 -8.515625 L 3.140625 -8.515625 C 6.441406 -8.515625 8.09375 -7.113281 8.09375 -4.3125 C 8.09375 -3.414062 7.90625 -2.644531 7.53125 -2 C 7.164062 -1.351562 6.640625 -0.859375 5.953125 -0.515625 C 5.265625 -0.171875 4.441406 0 3.484375 0 Z M 1.90625 -0.8125 L 3.4375 -0.8125 C 4.65625 -0.8125 5.578125 -1.101562 6.203125 -1.6875 C 6.835938 -2.269531 7.15625 -3.125 7.15625 -4.25 C 7.15625 -5.40625 6.835938 -6.269531 6.203125 -6.84375 C 5.566406 -7.414062 4.59375 -7.703125 3.28125 -7.703125 L 1.90625 -7.703125 Z M 1.90625 -0.8125 "/></g></g></g><g fill="#fffbf5" fill-opacity="1"><g transform="translate(224.687041, 212.004653)"><g><path d="M 4.5625 0.09375 C 3.769531 0.09375 3.082031 -0.0703125 2.5 -0.40625 C 1.914062 -0.738281 1.46875 -1.210938 1.15625 -1.828125 C 0.851562 -2.453125 0.703125 -3.210938 0.703125 -4.109375 C 0.703125 -4.992188 0.875 -5.773438 1.21875 -6.453125 C 1.5625 -7.140625 2.039062 -7.675781 2.65625 -8.0625 C 3.269531 -8.445312 3.976562 -8.640625 4.78125 -8.640625 C 5.53125 -8.640625 6.1875 -8.460938 6.75 -8.109375 C 7.3125 -7.753906 7.75 -7.265625 8.0625 -6.640625 C 8.375 -6.015625 8.53125 -5.273438 8.53125 -4.421875 C 8.53125 -3.503906 8.359375 -2.707031 8.015625 -2.03125 C 7.671875 -1.351562 7.203125 -0.828125 6.609375 -0.453125 C 6.015625 -0.0859375 5.332031 0.09375 4.5625 0.09375 Z M 4.5625 -0.75 C 5.15625 -0.75 5.675781 -0.894531 6.125 -1.1875 C 6.582031 -1.476562 6.9375 -1.898438 7.1875 -2.453125 C 7.445312 -3.003906 7.578125 -3.671875 7.578125 -4.453125 C 7.578125 -5.128906 7.460938 -5.71875 7.234375 -6.21875 C 7.015625 -6.71875 6.695312 -7.101562 6.28125 -7.375 C 5.863281 -7.644531 5.367188 -7.78125 4.796875 -7.78125 C 4.179688 -7.78125 3.632812 -7.625 3.15625 -7.3125 C 2.6875 -7.007812 2.316406 -6.582031 2.046875 -6.03125 C 1.773438 -5.476562 1.640625 -4.835938 1.640625 -4.109375 C 1.640625 -3.035156 1.898438 -2.207031 2.421875 -1.625 C 2.941406 -1.039062 3.65625 -0.75 4.5625 -0.75 Z M 4.5625 -0.75 "/></g></g></g><g fill="#fffbf5" fill-opacity="1"><g transform="translate(235.499063, 212.004653)"><g><path d="M 7.125 -0.921875 L 7.328125 -0.203125 C 7.078125 -0.015625 6.75 0.078125 6.34375 0.078125 C 6 0.078125 5.6875 0 5.40625 -0.15625 C 5.125 -0.320312 4.851562 -0.597656 4.59375 -0.984375 L 3 -3.34375 C 2.894531 -3.488281 2.769531 -3.609375 2.625 -3.703125 C 2.476562 -3.804688 2.332031 -3.859375 2.1875 -3.859375 L 1.890625 -3.859375 L 1.890625 0 L 0.984375 0 L 0.984375 -8.515625 L 3.390625 -8.515625 C 4.335938 -8.515625 5.066406 -8.304688 5.578125 -7.890625 C 6.085938 -7.484375 6.34375 -6.925781 6.34375 -6.21875 C 6.34375 -5.707031 6.210938 -5.28125 5.953125 -4.9375 C 5.703125 -4.59375 5.363281 -4.332031 4.9375 -4.15625 C 4.519531 -3.976562 4.054688 -3.890625 3.546875 -3.890625 L 3.46875 -3.890625 C 3.6875 -3.773438 3.914062 -3.546875 4.15625 -3.203125 L 5.265625 -1.578125 C 5.421875 -1.335938 5.554688 -1.15625 5.671875 -1.03125 C 5.785156 -0.914062 5.90625 -0.835938 6.03125 -0.796875 C 6.15625 -0.753906 6.304688 -0.734375 6.484375 -0.734375 C 6.609375 -0.734375 6.722656 -0.75 6.828125 -0.78125 C 6.929688 -0.820312 7.03125 -0.867188 7.125 -0.921875 Z M 3.3125 -7.75 L 1.890625 -7.75 L 1.890625 -4.609375 L 3.203125 -4.609375 C 3.910156 -4.609375 4.453125 -4.734375 4.828125 -4.984375 C 5.210938 -5.234375 5.40625 -5.632812 5.40625 -6.1875 C 5.40625 -6.675781 5.238281 -7.054688 4.90625 -7.328125 C 4.570312 -7.609375 4.039062 -7.75 3.3125 -7.75 Z M 3.3125 -7.75 "/></g></g></g><g fill="#fffbf5" fill-opacity="1"><g transform="translate(244.067071, 212.004653)"><g/></g></g><g fill="#fffbf5" fill-opacity="1"><g transform="translate(248.387078, 212.004653)"><g><path d="M 5.671875 -7.734375 L 1.890625 -7.734375 L 1.890625 -4.59375 L 5.5625 -4.59375 L 5.5625 -3.796875 L 1.890625 -3.796875 L 1.890625 0 L 0.984375 0 L 0.984375 -8.515625 L 5.671875 -8.515625 Z M 5.671875 -7.734375 "/></g></g></g><g fill="#fffbf5" fill-opacity="1"><g transform="translate(255.779091, 212.004653)"><g><path d="M 7.125 -0.921875 L 7.328125 -0.203125 C 7.078125 -0.015625 6.75 0.078125 6.34375 0.078125 C 6 0.078125 5.6875 0 5.40625 -0.15625 C 5.125 -0.320312 4.851562 -0.597656 4.59375 -0.984375 L 3 -3.34375 C 2.894531 -3.488281 2.769531 -3.609375 2.625 -3.703125 C 2.476562 -3.804688 2.332031 -3.859375 2.1875 -3.859375 L 1.890625 -3.859375 L 1.890625 0 L 0.984375 0 L 0.984375 -8.515625 L 3.390625 -8.515625 C 4.335938 -8.515625 5.066406 -8.304688 5.578125 -7.890625 C 6.085938 -7.484375 6.34375 -6.925781 6.34375 -6.21875 C 6.34375 -5.707031 6.210938 -5.28125 5.953125 -4.9375 C 5.703125 -4.59375 5.363281 -4.332031 4.9375 -4.15625 C 4.519531 -3.976562 4.054688 -3.890625 3.546875 -3.890625 L 3.46875 -3.890625 C 3.6875 -3.773438 3.914062 -3.546875 4.15625 -3.203125 L 5.265625 -1.578125 C 5.421875 -1.335938 5.554688 -1.15625 5.671875 -1.03125 C 5.785156 -0.914062 5.90625 -0.835938 6.03125 -0.796875 C 6.15625 -0.753906 6.304688 -0.734375 6.484375 -0.734375 C 6.609375 -0.734375 6.722656 -0.75 6.828125 -0.78125 C 6.929688 -0.820312 7.03125 -0.867188 7.125 -0.921875 Z M 3.3125 -7.75 L 1.890625 -7.75 L 1.890625 -4.609375 L 3.203125 -4.609375 C 3.910156 -4.609375 4.453125 -4.734375 4.828125 -4.984375 C 5.210938 -5.234375 5.40625 -5.632812 5.40625 -6.1875 C 5.40625 -6.675781 5.238281 -7.054688 4.90625 -7.328125 C 4.570312 -7.609375 4.039062 -7.75 3.3125 -7.75 Z M 3.3125 -7.75 "/></g></g></g><g fill="#fffbf5" fill-opacity="1"><g transform="translate(264.347099, 212.004653)"><g><path d="M 4.5625 0.09375 C 3.769531 0.09375 3.082031 -0.0703125 2.5 -0.40625 C 1.914062 -0.738281 1.46875 -1.210938 1.15625 -1.828125 C 0.851562 -2.453125 0.703125 -3.210938 0.703125 -4.109375 C 0.703125 -4.992188 0.875 -5.773438 1.21875 -6.453125 C 1.5625 -7.140625 2.039062 -7.675781 2.65625 -8.0625 C 3.269531 -8.445312 3.976562 -8.640625 4.78125 -8.640625 C 5.53125 -8.640625 6.1875 -8.460938 6.75 -8.109375 C 7.3125 -7.753906 7.75 -7.265625 8.0625 -6.640625 C 8.375 -6.015625 8.53125 -5.273438 8.53125 -4.421875 C 8.53125 -3.503906 8.359375 -2.707031 8.015625 -2.03125 C 7.671875 -1.351562 7.203125 -0.828125 6.609375 -0.453125 C 6.015625 -0.0859375 5.332031 0.09375 4.5625 0.09375 Z M 4.5625 -0.75 C 5.15625 -0.75 5.675781 -0.894531 6.125 -1.1875 C 6.582031 -1.476562 6.9375 -1.898438 7.1875 -2.453125 C 7.445312 -3.003906 7.578125 -3.671875 7.578125 -4.453125 C 7.578125 -5.128906 7.460938 -5.71875 7.234375 -6.21875 C 7.015625 -6.71875 6.695312 -7.101562 6.28125 -7.375 C 5.863281 -7.644531 5.367188 -7.78125 4.796875 -7.78125 C 4.179688 -7.78125 3.632812 -7.625 3.15625 -7.3125 C 2.6875 -7.007812 2.316406 -6.582031 2.046875 -6.03125 C 1.773438 -5.476562 1.640625 -4.835938 1.640625 -4.109375 C 1.640625 -3.035156 1.898438 -2.207031 2.421875 -1.625 C 2.941406 -1.039062 3.65625 -0.75 4.5625 -0.75 Z M 4.5625 -0.75 "/></g></g></g><g fill="#fffbf5" fill-opacity="1"><g transform="translate(275.159122, 212.004653)"><g><path d="M 6.734375 -8.515625 L 7.625 -8.515625 L 7.625 0 L 6.828125 0 L 1.875 -6.953125 L 1.875 0 L 0.984375 0 L 0.984375 -8.515625 L 1.78125 -8.515625 L 6.734375 -1.5625 Z M 6.734375 -8.515625 "/></g></g></g><g fill="#fffbf5" fill-opacity="1"><g transform="translate(285.347144, 212.004653)"><g><path d="M 6.546875 -8.515625 L 6.46875 -7.71875 L 3.75 -7.71875 L 3.75 0 L 2.8125 0 L 2.8125 -7.71875 L 0.03125 -7.71875 L 0.03125 -8.515625 Z M 6.546875 -8.515625 "/></g></g></g><g fill="#fffbf5" fill-opacity="1"><g transform="translate(293.48316, 212.004653)"><g><path d="M 0.71875 -2.65625 L 0.71875 -3.4375 L 4 -3.4375 L 4 -2.65625 Z M 0.71875 -2.65625 "/></g></g></g><g fill="#fffbf5" fill-opacity="1"><g transform="translate(299.783166, 212.004653)"><g><path d="M 5.921875 -7.734375 L 1.890625 -7.734375 L 1.890625 -4.734375 L 5.8125 -4.734375 L 5.8125 -3.9375 L 1.890625 -3.9375 L 1.890625 -0.796875 L 6.078125 -0.796875 L 6.015625 0 L 0.984375 0 L 0.984375 -8.515625 L 5.921875 -8.515625 Z M 5.921875 -7.734375 "/></g></g></g><g fill="#fffbf5" fill-opacity="1"><g transform="translate(307.871175, 212.004653)"><g><path d="M 6.734375 -8.515625 L 7.625 -8.515625 L 7.625 0 L 6.828125 0 L 1.875 -6.953125 L 1.875 0 L 0.984375 0 L 0.984375 -8.515625 L 1.78125 -8.515625 L 6.734375 -1.5625 Z M 6.734375 -8.515625 "/></g></g></g><g fill="#fffbf5" fill-opacity="1"><g transform="translate(318.059197, 212.004653)"><g><path d="M 0.984375 0 L 0.984375 -8.515625 L 3.140625 -8.515625 C 6.441406 -8.515625 8.09375 -7.113281 8.09375 -4.3125 C 8.09375 -3.414062 7.90625 -2.644531 7.53125 -2 C 7.164062 -1.351562 6.640625 -0.859375 5.953125 -0.515625 C 5.265625 -0.171875 4.441406 0 3.484375 0 Z M 1.90625 -0.8125 L 3.4375 -0.8125 C 4.65625 -0.8125 5.578125 -1.101562 6.203125 -1.6875 C 6.835938 -2.269531 7.15625 -3.125 7.15625 -4.25 C 7.15625 -5.40625 6.835938 -6.269531 6.203125 -6.84375 C 5.566406 -7.414062 4.59375 -7.703125 3.28125 -7.703125 L 1.90625 -7.703125 Z M 1.90625 -0.8125 "/></g></g></g><g clip-path="url(#6ea2b51617)"><g clip-path="url(#34cc849ace)"><path fill="#ffffff" d="M 119.292969 206.25 L 123.046875 206.25 L 123.046875 209.507812 L 119.292969 209.507812 Z M 119.292969 206.25 " fill-opacity="1" fill-rule="nonzero"/></g></g><g fill="#ffffff" fill-opacity="1"><g transform="translate(43.69644, 211.152585)"><g><path d="M 44.53125 -2.875 L 45.078125 -1.03125 C 44.441406 -0.550781 43.753906 -0.21875 43.015625 -0.03125 C 42.273438 0.144531 41.453125 0.234375 40.546875 0.234375 C 38.742188 0.234375 37.097656 -0.175781 35.609375 -1 C 34.117188 -1.820312 32.5 -3.503906 30.75 -6.046875 L 18.234375 -24.21875 C 17.703125 -25.007812 16.878906 -25.800781 15.765625 -26.59375 C 14.648438 -27.394531 13.242188 -27.796875 11.546875 -27.796875 L 9.5625 -27.796875 L 9.5625 0 L 7.171875 0 L 7.171875 -56.5625 L 21.59375 -56.5625 C 27.320312 -56.5625 31.6875 -55.296875 34.6875 -52.765625 C 37.6875 -50.242188 39.1875 -46.832031 39.1875 -42.53125 C 39.1875 -38.070312 37.632812 -34.5 34.53125 -31.8125 C 31.425781 -29.132812 27.113281 -27.796875 21.59375 -27.796875 L 17.046875 -27.796875 C 17.898438 -27.484375 18.695312 -26.925781 19.4375 -26.125 C 20.175781 -25.332031 21.023438 -24.242188 21.984375 -22.859375 L 31.9375 -8.203125 C 33.21875 -6.398438 34.269531 -5.03125 35.09375 -4.09375 C 35.914062 -3.164062 36.75 -2.539062 37.59375 -2.21875 C 38.445312 -1.90625 39.507812 -1.75 40.78125 -1.75 C 41.53125 -1.75 42.207031 -1.867188 42.8125 -2.109375 C 43.425781 -2.347656 44 -2.601562 44.53125 -2.875 Z M 21.34375 -54.40625 L 9.5625 -54.40625 L 9.5625 -29.875 L 20.953125 -29.875 C 25.992188 -29.875 29.878906 -30.9375 32.609375 -33.0625 C 35.347656 -35.1875 36.71875 -38.238281 36.71875 -42.21875 C 36.71875 -45.882812 35.519531 -48.832031 33.125 -51.0625 C 30.738281 -53.289062 26.8125 -54.40625 21.34375 -54.40625 Z M 21.34375 -54.40625 "/></g></g></g><g fill="#ffffff" fill-opacity="1"><g transform="translate(72.25489, 224.095911)"><g><path d="M 13.1875 0.5625 C 9.164062 0.5625 5.988281 -0.347656 3.65625 -2.171875 C 1.320312 -4.003906 -0.210938 -6.40625 -0.953125 -9.375 L 1.265625 -10.171875 C 2.117188 -7.203125 3.523438 -5.066406 5.484375 -3.765625 C 7.441406 -2.472656 10.035156 -1.828125 13.265625 -1.828125 C 17.023438 -1.828125 19.726562 -2.910156 21.375 -5.078125 C 23.019531 -7.253906 23.84375 -10.882812 23.84375 -15.96875 L 23.84375 -56.40625 L 26.296875 -56.40625 L 26.296875 -16.125 C 26.296875 -10.300781 25.207031 -6.0625 23.03125 -3.40625 C 20.863281 -0.757812 17.582031 0.5625 13.1875 0.5625 Z M 13.1875 0.5625 "/></g></g></g><path stroke-linecap="butt" transform="matrix(0, -0.75, 0.75, 0, 108.042113, 230.091664)" fill="none" stroke-linejoin="miter" d="M 0.00242712 1.001142 L 105.408684 1.001142 " stroke="#ffffff" stroke-width="2" stroke-opacity="1" stroke-miterlimit="4"/></svg>